solid back
  facet normal 0 0 -1
    outer loop
       vertex -1.618703 -1.830978 -0.557967
       vertex 4.82342 2.27362 -0.557967
       vertex 4.82342 -1.830978 -0.557967
    endloop
  endfacet
  facet normal 0 0 -1
    outer loop
       vertex -1.618703 -1.830978 -0.557967
       vertex -1.618703 2.27362 -0.557967
       vertex 4.82342 2.27362 -0.557967
    endloop
  endfacet
endsolid back
solid front
  facet normal 0 0 1
    outer loop
       vertex 4.82342 2.27362 0.586404
       vertex -1.618703 -1.830978 0.586404
       vertex 4.82342 -1.830978 0.586404
    endloop
  endfacet
  facet normal 0 0 1
    outer loop
       vertex 4.82342 2.27362 0.586404
       vertex -1.618703 2.27362 0.586404
       vertex -1.618703 -1.830978 0.586404
    endloop
  endfacet
endsolid front
solid bottom
  facet normal -2.19049e-08 -1 2.0834e-07
    outer loop
       vertex -1.618703 -1.830978 0.586404
       vertex -1.618703 -1.830978 -0.557967
       vertex 4.82342 -1.830978 -0.557967
    endloop
  endfacet
  facet normal -1.97144e-07 -1 -6.25021e-07
    outer loop
       vertex 4.82342 -1.830978 -0.557967
       vertex 4.82342 -1.830978 0.586404
       vertex -1.618703 -1.830978 0.586404
    endloop
  endfacet
endsolid bottom
solid top
  facet normal 6.57148e-08 1 4.1668e-07
    outer loop
       vertex 4.82342 2.27362 0.586404
       vertex 4.82342 2.27362 -0.557967
       vertex -1.618703 2.27362 -0.557967
    endloop
  endfacet
  facet normal 8.76197e-08 1 3.1251e-07
    outer loop
       vertex -1.618703 2.27362 -0.557967
       vertex -1.618703 2.27362 0.586404
       vertex 4.82342 2.27362 0.586404
    endloop
  endfacet
endsolid top
solid inlet
  facet normal -1 2.54891e-07 -2.60425e-07
    outer loop
       vertex -1.618703 -1.830978 -0.557967
       vertex -1.618703 2.27362 0.586404
       vertex -1.618703 2.27362 -0.557967
    endloop
  endfacet
  facet normal -1 1.69927e-07 -1.0417e-07
    outer loop
       vertex -1.618703 -1.830978 -0.557967
       vertex -1.618703 -1.830978 0.586404
       vertex -1.618703 2.27362 0.586404
    endloop
  endfacet
endsolid inlet
solid outlet
  facet normal 1 0 8.33361e-07
    outer loop
       vertex 4.82342 2.27362 -0.557967
       vertex 4.82342 -1.830978 0.586404
       vertex 4.82342 -1.830978 -0.557967
    endloop
  endfacet
  facet normal 1 -6.79708e-07 -4.16681e-07
    outer loop
       vertex 4.82342 2.27362 -0.557967
       vertex 4.82342 2.27362 0.586404
       vertex 4.82342 -1.830978 0.586404
    endloop
  endfacet
endsolid outlet
