solid fluidToMetal
 facet normal 0 -1 0
  outer loop
   vertex 0.005 0.005 0
   vertex 0.045 0.005 0
   vertex 0.045 0.005 0.15
  endloop
 endfacet
 facet normal 0 -1 0
  outer loop
   vertex 0.005 0.005 0
   vertex 0.045 0.005 0.15
   vertex 0.005 0.005 0.15
  endloop
 endfacet
 facet normal 1 0 0
  outer loop
   vertex 0.045 0.005 0
   vertex 0.045 0.045 0
   vertex 0.045 0.045 0.15
  endloop
 endfacet
 facet normal 1 0 0
  outer loop
   vertex 0.045 0.005 0
   vertex 0.045 0.045 0.15
   vertex 0.045 0.005 0.15
  endloop
 endfacet
 facet normal 0 1 0
  outer loop
   vertex 0.045 0.045 0
   vertex 0.005 0.045 0
   vertex 0.005 0.045 0.15
  endloop
 endfacet
 facet normal 0 1 -0
  outer loop
   vertex 0.045 0.045 0
   vertex 0.005 0.045 0.15
   vertex 0.045 0.045 0.15
  endloop
 endfacet
 facet normal -1 0 0
  outer loop
   vertex 0.005 0.045 0
   vertex 0.005 0.005 0
   vertex 0.005 0.005 0.15
  endloop
 endfacet
 facet normal -1 0 0
  outer loop
   vertex 0.005 0.045 0
   vertex 0.005 0.005 0.15
   vertex 0.005 0.045 0.15
  endloop
 endfacet
endsolid fluidToMetal
