solid jagged
  facet normal 0.468764725245 0.883323062286 -0
    outer loop
       vertex 0.0385189987719 -0.0289657991379 -1.5
       vertex -0.0187957007438 0.00145015004091 1.5
       vertex 0.0385189987719 -0.0289657991379 1.5
    endloop
  endfacet
  facet normal 0.647754318236 0.761849291662 -0
    outer loop
       vertex -0.0682383030653 0.0434882007539 -1.5
       vertex -0.0682383030653 0.0434882007539 1.5
       vertex -0.0187957007438 0.00145015004091 -1.5
    endloop
  endfacet
  facet normal 0.647754318236 0.761849291662 -0
    outer loop
       vertex -0.0187957007438 0.00145015004091 -1.5
       vertex -0.0682383030653 0.0434882007539 1.5
       vertex -0.0187957007438 0.00145015004091 1.5
    endloop
  endfacet
  facet normal 0.796376571447 0.604801088334 -0
    outer loop
       vertex -0.107496999204 0.0951823964715 -1.5
       vertex -0.107496999204 0.0951823964715 1.5
       vertex -0.0682383030653 0.0434882007539 -1.5
    endloop
  endfacet
  facet normal 0.796376571447 0.604801088334 -0
    outer loop
       vertex -0.0682383030653 0.0434882007539 -1.5
       vertex -0.107496999204 0.0951823964715 1.5
       vertex -0.0682383030653 0.0434882007539 1.5
    endloop
  endfacet
  facet normal 0.907731420759 0.419551746233 -0
    outer loop
       vertex -0.134736001492 0.154116004705 -1.5
       vertex -0.134736001492 0.154116004705 1.5
       vertex -0.107496999204 0.0951823964715 -1.5
    endloop
  endfacet
  facet normal 0.907731420759 0.419551746233 -0
    outer loop
       vertex -0.107496999204 0.0951823964715 -1.5
       vertex -0.134736001492 0.154116004705 1.5
       vertex -0.107496999204 0.0951823964715 1.5
    endloop
  endfacet
  facet normal 0.976665530864 0.214766014121 -0
    outer loop
       vertex -0.148680999875 0.217531993985 -1.5
       vertex -0.148680999875 0.217531993985 1.5
       vertex -0.134736001492 0.154116004705 -1.5
    endloop
  endfacet
  facet normal 0.976665530864 0.214766014121 -0
    outer loop
       vertex -0.134736001492 0.154116004705 -1.5
       vertex -0.148680999875 0.217531993985 1.5
       vertex -0.134736001492 0.154116004705 1.5
    endloop
  endfacet
  facet normal 1 0 -0
    outer loop
       vertex -0.148680999875 0.282467007637 -1.5
       vertex -0.148680999875 0.282467007637 1.5
       vertex -0.148680999875 0.217531993985 -1.5
    endloop
  endfacet
  facet normal 1 0 0
    outer loop
       vertex -0.148680999875 0.217531993985 -1.5
       vertex -0.148680999875 0.282467007637 1.5
       vertex -0.148680999875 0.217531993985 1.5
    endloop
  endfacet
  facet normal 0.976666240056 -0.214762788992 0
    outer loop
       vertex -0.134736001492 0.345883995295 -1.5
       vertex -0.134736001492 0.345883995295 1.5
       vertex -0.148680999875 0.282467007637 -1.5
    endloop
  endfacet
  facet normal 0.976666240056 -0.214762788992 0
    outer loop
       vertex -0.148680999875 0.282467007637 -1.5
       vertex -0.134736001492 0.345883995295 1.5
       vertex -0.148680999875 0.282467007637 1.5
    endloop
  endfacet
  facet normal 0.90773249136 -0.4195494299 0
    outer loop
       vertex -0.107496999204 0.404817998409 -1.5
       vertex -0.107496999204 0.404817998409 1.5
       vertex -0.134736001492 0.345883995295 -1.5
    endloop
  endfacet
  facet normal 0.90773249136 -0.4195494299 0
    outer loop
       vertex -0.134736001492 0.345883995295 -1.5
       vertex -0.107496999204 0.404817998409 1.5
       vertex -0.134736001492 0.345883995295 1.5
    endloop
  endfacet
  facet normal 0.796375500831 -0.604802498073 0
    outer loop
       vertex -0.0682383030653 0.456512004137 -1.5
       vertex -0.0682383030653 0.456512004137 1.5
       vertex -0.107496999204 0.404817998409 -1.5
    endloop
  endfacet
  facet normal -0.99415065992 0.108002154517 0
    outer loop
       vertex 0.442546993494 0.185445994139 -1.5
       vertex 0.442546993494 0.185445994139 1.5
       vertex 0.449559986591 0.25 -1.5
    endloop
  endfacet
  facet normal -0.99415065992 0.108002154517 0
    outer loop
       vertex 0.449559986591 0.25 -1.5
       vertex 0.442546993494 0.185445994139 1.5
       vertex 0.449559986591 0.25 1.5
    endloop
  endfacet
  facet normal -0.947745893024 0.319026209355 0
    outer loop
       vertex 0.421833008528 0.12391000241 -1.5
       vertex 0.421833008528 0.12391000241 1.5
       vertex 0.442546993494 0.185445994139 -1.5
    endloop
  endfacet
  facet normal -0.947745893024 0.319026209355 0
    outer loop
       vertex 0.442546993494 0.185445994139 -1.5
       vertex 0.421833008528 0.12391000241 1.5
       vertex 0.442546993494 0.185445994139 1.5
    endloop
  endfacet
  facet normal -0.857078113059 0.515186478971 0
    outer loop
       vertex 0.388388007879 0.0682699978352 -1.5
       vertex 0.388388007879 0.0682699978352 1.5
       vertex 0.421833008528 0.12391000241 -1.5
    endloop
  endfacet
  facet normal -0.857078113059 0.515186478971 0
    outer loop
       vertex 0.421833008528 0.12391000241 -1.5
       vertex 0.388388007879 0.0682699978352 1.5
       vertex 0.421833008528 0.12391000241 1.5
    endloop
  endfacet
  facet normal -0.726331758 0.687344293146 0
    outer loop
       vertex 0.343775987625 0.02112749964 -1.5
       vertex 0.343775987625 0.02112749964 1.5
       vertex 0.388388007879 0.0682699978352 -1.5
    endloop
  endfacet
  facet normal -0.726331758 0.687344293146 0
    outer loop
       vertex 0.388388007879 0.0682699978352 -1.5
       vertex 0.343775987625 0.02112749964 1.5
       vertex 0.388388007879 0.0682699978352 1.5
    endloop
  endfacet
  facet normal -0.561565427605 0.827432335916 0
    outer loop
       vertex 0.290082991123 -0.0153131000698 -1.5
       vertex 0.290082991123 -0.0153131000698 1.5
       vertex 0.343775987625 0.02112749964 -1.5
    endloop
  endfacet
  facet normal -0.561565427605 0.827432335916 0
    outer loop
       vertex 0.343775987625 0.02112749964 -1.5
       vertex 0.290082991123 -0.0153131000698 1.5
       vertex 0.343775987625 0.02112749964 1.5
    endloop
  endfacet
  facet normal -0.370449778906 0.928852497068 0
    outer loop
       vertex 0.229818999767 -0.0393478982151 -1.5
       vertex 0.229818999767 -0.0393478982151 1.5
       vertex 0.290082991123 -0.0153131000698 -1.5
    endloop
  endfacet
  facet normal -0.370449778906 0.928852497068 0
    outer loop
       vertex 0.290082991123 -0.0153131000698 -1.5
       vertex 0.229818999767 -0.0393478982151 1.5
       vertex 0.290082991123 -0.0153131000698 1.5
    endloop
  endfacet
  facet normal -0.161937308414 0.986801047904 0
    outer loop
       vertex 0.165802001953 -0.0498532988131 -1.5
       vertex 0.165802001953 -0.0498532988131 1.5
       vertex 0.229818999767 -0.0393478982151 -1.5
    endloop
  endfacet
  facet normal -0.161937308414 0.986801047904 0
    outer loop
       vertex 0.229818999767 -0.0393478982151 -1.5
       vertex 0.165802001953 -0.0498532988131 1.5
       vertex 0.229818999767 -0.0393478982151 1.5
    endloop
  endfacet
  facet normal 0.0541918998299 0.998530539339 -0
    outer loop
       vertex 0.101025998592 -0.0463377982378 -1.5
       vertex 0.101025998592 -0.0463377982378 1.5
       vertex 0.165802001953 -0.0498532988131 -1.5
    endloop
  endfacet
  facet normal 0.0541918998299 0.998530539339 -0
    outer loop
       vertex 0.165802001953 -0.0498532988131 -1.5
       vertex 0.101025998592 -0.0463377982378 1.5
       vertex 0.165802001953 -0.0498532988131 1.5
    endloop
  endfacet
  facet normal 0.267771842801 0.963482350748 -0
    outer loop
       vertex 0.0385189987719 -0.0289657991379 -1.5
       vertex 0.0385189987719 -0.0289657991379 1.5
       vertex 0.101025998592 -0.0463377982378 -1.5
    endloop
  endfacet
  facet normal 0.267771842801 0.963482350748 -0
    outer loop
       vertex 0.101025998592 -0.0463377982378 -1.5
       vertex 0.0385189987719 -0.0289657991379 1.5
       vertex 0.101025998592 -0.0463377982378 1.5
    endloop
  endfacet
  facet normal 0.468764725245 0.883323062286 -0
    outer loop
       vertex -0.0187957007438 0.00145015004091 -1.5
       vertex -0.0187957007438 0.00145015004091 1.5
       vertex 0.0385189987719 -0.0289657991379 -1.5
    endloop
  endfacet
  facet normal -0.947745881345 -0.31902624405 0
    outer loop
       vertex 0.442546993494 0.314554005861 -1.5
       vertex 0.442546993494 0.314554005861 1.5
       vertex 0.421833008528 0.376089990139 -1.5
    endloop
  endfacet
  facet normal -0.947745881345 -0.31902624405 0
    outer loop
       vertex 0.421833008528 0.376089990139 -1.5
       vertex 0.442546993494 0.314554005861 1.5
       vertex 0.421833008528 0.376089990139 1.5
    endloop
  endfacet
  facet normal -0.99415065992 -0.108002154517 0
    outer loop
       vertex 0.449559986591 0.25 -1.5
       vertex 0.449559986591 0.25 1.5
       vertex 0.442546993494 0.314554005861 -1.5
    endloop
  endfacet
  facet normal -0.99415065992 -0.108002154517 0
    outer loop
       vertex 0.442546993494 0.314554005861 -1.5
       vertex 0.449559986591 0.25 1.5
       vertex 0.442546993494 0.314554005861 1.5
    endloop
  endfacet
  facet normal 0 -1 0
    outer loop
       vertex -0.300000011921 0 -1.39999997616
       vertex -0.300000011921 0 1.5
       vertex -0.699999988079 0 -1.39999997616
    endloop
  endfacet
  facet normal 0 -1 0
    outer loop
       vertex -0.699999988079 0 -1.39999997616
       vertex -0.300000011921 0 1.5
       vertex -0.699999988079 0 1.5
    endloop
  endfacet
  facet normal -1 0 0
    outer loop
       vertex -0.300000011921 -0.40000000596 -1.39999997616
       vertex -0.300000011921 -0.40000000596 1.5
       vertex -0.300000011921 0 -1.39999997616
    endloop
  endfacet
  facet normal -1 0 0
    outer loop
       vertex -0.300000011921 0 -1.39999997616
       vertex -0.300000011921 -0.40000000596 1.5
       vertex -0.300000011921 0 1.5
    endloop
  endfacet
  facet normal 0 1 0
    outer loop
       vertex -0.699999988079 -0.40000000596 -1.39999997616
       vertex -0.699999988079 -0.40000000596 1.5
       vertex -0.300000011921 -0.40000000596 -1.39999997616
    endloop
  endfacet
  facet normal 0 1 -0
    outer loop
       vertex -0.300000011921 -0.40000000596 -1.39999997616
       vertex -0.699999988079 -0.40000000596 1.5
       vertex -0.300000011921 -0.40000000596 1.5
    endloop
  endfacet
  facet normal 1 0 -0
    outer loop
       vertex -0.699999988079 0 -1.39999997616
       vertex -0.699999988079 0 1.5
       vertex -0.699999988079 -0.40000000596 -1.39999997616
    endloop
  endfacet
  facet normal 1 0 0
    outer loop
       vertex -0.699999988079 -0.40000000596 -1.39999997616
       vertex -0.699999988079 0 1.5
       vertex -0.699999988079 -0.40000000596 1.5
    endloop
  endfacet
  facet normal 0.796375500831 -0.604802498073 0
    outer loop
       vertex -0.107496999204 0.404817998409 -1.5
       vertex -0.0682383030653 0.456512004137 1.5
       vertex -0.107496999204 0.404817998409 1.5
    endloop
  endfacet
  facet normal 0.647754558747 -0.761849087171 0
    outer loop
       vertex -0.018795799464 0.498549997807 -1.5
       vertex -0.018795799464 0.498549997807 1.5
       vertex -0.0682383030653 0.456512004137 -1.5
    endloop
  endfacet
  facet normal 0.647754558747 -0.761849087171 0
    outer loop
       vertex -0.0682383030653 0.456512004137 -1.5
       vertex -0.018795799464 0.498549997807 1.5
       vertex -0.0682383030653 0.456512004137 1.5
    endloop
  endfacet
  facet normal 0.468765490288 -0.88332265629 0
    outer loop
       vertex 0.0385188981891 0.528966009617 -1.5
       vertex 0.0385188981891 0.528966009617 1.5
       vertex -0.018795799464 0.498549997807 -1.5
    endloop
  endfacet
  facet normal 0.468765490288 -0.88332265629 0
    outer loop
       vertex -0.018795799464 0.498549997807 -1.5
       vertex 0.0385188981891 0.528966009617 1.5
       vertex -0.018795799464 0.498549997807 1.5
    endloop
  endfacet
  facet normal 0.267771629378 -0.963482410063 0
    outer loop
       vertex 0.101025998592 0.546338021755 -1.5
       vertex 0.101025998592 0.546338021755 1.5
       vertex 0.0385188981891 0.528966009617 -1.5
    endloop
  endfacet
  facet normal 0.267771629378 -0.963482410063 0
    outer loop
       vertex 0.0385188981891 0.528966009617 -1.5
       vertex 0.101025998592 0.546338021755 1.5
       vertex 0.0385188981891 0.528966009617 1.5
    endloop
  endfacet
  facet normal 0.0541842846189 -0.9985309526 0
    outer loop
       vertex 0.165802001953 0.549853026867 -1.5
       vertex 0.165802001953 0.549853026867 1.5
       vertex 0.101025998592 0.546338021755 -1.5
    endloop
  endfacet
  facet normal 0.0541842846189 -0.9985309526 0
    outer loop
       vertex 0.101025998592 0.546338021755 -1.5
       vertex 0.165802001953 0.549853026867 1.5
       vertex 0.101025998592 0.546338021755 1.5
    endloop
  endfacet
  facet normal -0.161931604744 -0.986801983878 0
    outer loop
       vertex 0.229818999767 0.539348006248 -1.5
       vertex 0.229818999767 0.539348006248 1.5
       vertex 0.165802001953 0.549853026867 -1.5
    endloop
  endfacet
  facet normal -0.161931604744 -0.986801983878 0
    outer loop
       vertex 0.165802001953 0.549853026867 -1.5
       vertex 0.229818999767 0.539348006248 1.5
       vertex 0.165802001953 0.549853026867 1.5
    endloop
  endfacet
  facet normal -0.370452156748 -0.928851548721 0
    outer loop
       vertex 0.290082991123 0.515313029289 -1.5
       vertex 0.290082991123 0.515313029289 1.5
       vertex 0.229818999767 0.539348006248 -1.5
    endloop
  endfacet
  facet normal -0.370452156748 -0.928851548721 0
    outer loop
       vertex 0.229818999767 0.539348006248 -1.5
       vertex 0.290082991123 0.515313029289 1.5
       vertex 0.229818999767 0.539348006248 1.5
    endloop
  endfacet
  facet normal -0.561559256785 -0.827436523921 0
    outer loop
       vertex 0.343775987625 0.47887301445 -1.5
       vertex 0.343775987625 0.47887301445 1.5
       vertex 0.290082991123 0.515313029289 -1.5
    endloop
  endfacet
  facet normal -0.561559256785 -0.827436523921 0
    outer loop
       vertex 0.290082991123 0.515313029289 -1.5
       vertex 0.343775987625 0.47887301445 1.5
       vertex 0.290082991123 0.515313029289 1.5
    endloop
  endfacet
  facet normal -0.726335500024 -0.687340338846 0
    outer loop
       vertex 0.388388007879 0.431730002165 -1.5
       vertex 0.388388007879 0.431730002165 1.5
       vertex 0.343775987625 0.47887301445 -1.5
    endloop
  endfacet
  facet normal -0.726335500024 -0.687340338846 0
    outer loop
       vertex 0.343775987625 0.47887301445 -1.5
       vertex 0.388388007879 0.431730002165 1.5
       vertex 0.343775987625 0.47887301445 1.5
    endloop
  endfacet
  facet normal -0.857078143521 -0.515186428295 0
    outer loop
       vertex 0.421833008528 0.376089990139 -1.5
       vertex 0.421833008528 0.376089990139 1.5
       vertex 0.388388007879 0.431730002165 -1.5
    endloop
  endfacet
  facet normal -0.857078143521 -0.515186428295 0
    outer loop
       vertex 0.388388007879 0.431730002165 -1.5
       vertex 0.421833008528 0.376089990139 1.5
       vertex 0.388388007879 0.431730002165 1.5
    endloop
  endfacet
  facet normal 1 -0 0
    outer loop
       vertex 1.29999995232 0 1.5
       vertex 1.29999995232 0.40000000596 -1.5
       vertex 1.29999995232 0.40000000596 1.5
    endloop
  endfacet
  facet normal 0 -1 0
    outer loop
       vertex 0.899999976158 0 1.5
       vertex 0.899999976158 0 -1.5
       vertex 1.29999995232 0 -1.5
    endloop
  endfacet
  facet normal 0 -1 0
    outer loop
       vertex 0.899999976158 0 1.5
       vertex 1.29999995232 0 -1.5
       vertex 1.29999995232 0 1.5
    endloop
  endfacet
  facet normal 0.196116149188 -0.980580672881 0
    outer loop
       vertex 0.40000000596 -0.10000000149 1.5
       vertex 0.40000000596 -0.10000000149 -1.5
       vertex 0.899999976158 0 -1.5
    endloop
  endfacet
  facet normal 0.196116149188 -0.980580672881 0
    outer loop
       vertex 0.40000000596 -0.10000000149 1.5
       vertex 0.899999976158 0 -1.5
       vertex 0.899999976158 0 1.5
    endloop
  endfacet
  facet normal 1 0 0
    outer loop
       vertex 0.40000000596 -0.300000011921 1.5
       vertex 0.40000000596 -0.300000011921 -1.5
       vertex 0.40000000596 -0.10000000149 -1.5
    endloop
  endfacet
  facet normal 1 -0 0
    outer loop
       vertex 0.40000000596 -0.300000011921 1.5
       vertex 0.40000000596 -0.10000000149 -1.5
       vertex 0.40000000596 -0.10000000149 1.5
    endloop
  endfacet
  facet normal 0.242535608029 0.970142504397 0
    outer loop
       vertex 0.800000011921 -0.40000000596 1.5
       vertex 0.800000011921 -0.40000000596 -1.5
       vertex 0.40000000596 -0.300000011921 -1.5
    endloop
  endfacet
  facet normal 0.242535608029 0.970142504397 0
    outer loop
       vertex 0.800000011921 -0.40000000596 1.5
       vertex 0.40000000596 -0.300000011921 -1.5
       vertex 0.40000000596 -0.300000011921 1.5
    endloop
  endfacet
  facet normal 0.242535591022 0.970142508649 0
    outer loop
       vertex 1.20000004768 -0.5 1.5
       vertex 1.20000004768 -0.5 -1.5
       vertex 0.800000011921 -0.40000000596 -1.5
    endloop
  endfacet
  facet normal 0.242535591022 0.970142508649 0
    outer loop
       vertex 1.20000004768 -0.5 1.5
       vertex 0.800000011921 -0.40000000596 -1.5
       vertex 0.800000011921 -0.40000000596 1.5
    endloop
  endfacet
  facet normal 0.980580666699 -0.196116180098 0
    outer loop
       vertex 1.10000002384 -1 1.5
       vertex 1.10000002384 -1 -1.5
       vertex 1.20000004768 -0.5 -1.5
    endloop
  endfacet
  facet normal 0.980580666699 -0.196116180098 0
    outer loop
       vertex 1.10000002384 -1 1.5
       vertex 1.20000004768 -0.5 -1.5
       vertex 1.20000004768 -0.5 1.5
    endloop
  endfacet
  facet normal 0.124034761887 -0.992277873301 0
    outer loop
       vertex 0.300000011921 -1.10000002384 1.5
       vertex 0.300000011921 -1.10000002384 -1.5
       vertex 1.10000002384 -1 -1.5
    endloop
  endfacet
  facet normal 0.124034761887 -0.992277873301 0
    outer loop
       vertex 0.300000011921 -1.10000002384 1.5
       vertex 1.10000002384 -1 -1.5
       vertex 1.10000002384 -1 1.5
    endloop
  endfacet
  facet normal -0.894427244312 0.447213488876 0
    outer loop
       vertex 0.40000000596 -0.899999976158 1.5
       vertex 0.40000000596 -0.899999976158 -1.5
       vertex 0.300000011921 -1.10000002384 -1.5
    endloop
  endfacet
  facet normal 0.707106781187 0.707106781187 0
    outer loop
       vertex -0.600000023842 0.699999988079 1.5
       vertex -0.600000023842 0.699999988079 -1.5
       vertex -0.800000011921 0.899999976158 -1.5
    endloop
  endfacet
  facet normal 0.707106781187 0.707106781187 0
    outer loop
       vertex -0.600000023842 0.699999988079 1.5
       vertex -0.800000011921 0.899999976158 -1.5
       vertex -0.800000011921 0.899999976158 1.5
    endloop
  endfacet
  facet normal 0 1 0
    outer loop
       vertex -0.40000000596 0.699999988079 1.5
       vertex -0.40000000596 0.699999988079 -1.5
       vertex -0.600000023842 0.699999988079 -1.5
    endloop
  endfacet
  facet normal 0 1 0
    outer loop
       vertex -0.40000000596 0.699999988079 1.5
       vertex -0.600000023842 0.699999988079 -1.5
       vertex -0.600000023842 0.699999988079 1.5
    endloop
  endfacet
  facet normal -0.948683307475 0.316227737744 0
    outer loop
       vertex -0.300000011921 1 1.5
       vertex -0.300000011921 1 -1.5
       vertex -0.40000000596 0.699999988079 -1.5
    endloop
  endfacet
  facet normal -0.948683307475 0.316227737744 0
    outer loop
       vertex -0.300000011921 1 1.5
       vertex -0.40000000596 0.699999988079 -1.5
       vertex -0.40000000596 0.699999988079 1.5
    endloop
  endfacet
  facet normal -0.316227822563 0.948683279202 0
    outer loop
       vertex 0 1.10000002384 1.5
       vertex 0 1.10000002384 -1.5
       vertex -0.300000011921 1 -1.5
    endloop
  endfacet
  facet normal -0.316227822563 0.948683279202 0
    outer loop
       vertex 0 1.10000002384 1.5
       vertex -0.300000011921 1 -1.5
       vertex -0.300000011921 1 1.5
    endloop
  endfacet
  facet normal 0.447213675468 0.894427151016 0
    outer loop
       vertex 0.20000000298 1 1.5
       vertex 0.20000000298 1 -1.5
       vertex 0 1.10000002384 -1.5
    endloop
  endfacet
  facet normal 0.447213675468 0.894427151016 0
    outer loop
       vertex 0.20000000298 1 1.5
       vertex 0 1.10000002384 -1.5
       vertex 0 1.10000002384 1.5
    endloop
  endfacet
  facet normal 0.554700177151 0.832050307054 0
    outer loop
       vertex 0.5 0.800000011921 1.5
       vertex 0.5 0.800000011921 -1.5
       vertex 0.20000000298 1 -1.5
    endloop
  endfacet
  facet normal 0.554700177151 0.832050307054 0
    outer loop
       vertex 0.5 0.800000011921 1.5
       vertex 0.20000000298 1 -1.5
       vertex 0.20000000298 1 1.5
    endloop
  endfacet
  facet normal -0.707106781187 0.707106781187 0
    outer loop
       vertex 0.699999988079 1 1.5
       vertex 0.699999988079 1 -1.5
       vertex 0.5 0.800000011921 -1.5
    endloop
  endfacet
  facet normal -0.707106781187 0.707106781187 0
    outer loop
       vertex 0.699999988079 1 1.5
       vertex 0.5 0.800000011921 -1.5
       vertex 0.5 0.800000011921 1.5
    endloop
  endfacet
  facet normal 0.554700158076 0.832050319771 0
    outer loop
       vertex 1 0.800000011921 1.5
       vertex 1 0.800000011921 -1.5
       vertex 0.699999988079 1 -1.5
    endloop
  endfacet
  facet normal 0.554700158076 0.832050319771 0
    outer loop
       vertex 1 0.800000011921 1.5
       vertex 0.699999988079 1 -1.5
       vertex 0.699999988079 1 1.5
    endloop
  endfacet
  facet normal 0.800000050068 0.599999933243 0
    outer loop
       vertex 1.29999995232 0.40000000596 1.5
       vertex 1.29999995232 0.40000000596 -1.5
       vertex 1 0.800000011921 -1.5
    endloop
  endfacet
  facet normal 0.800000050068 0.599999933243 0
    outer loop
       vertex 1.29999995232 0.40000000596 1.5
       vertex 1 0.800000011921 -1.5
       vertex 1 0.800000011921 1.5
    endloop
  endfacet
  facet normal 1 0 0
    outer loop
       vertex 1.29999995232 0 1.5
       vertex 1.29999995232 0 -1.5
       vertex 1.29999995232 0.40000000596 -1.5
    endloop
  endfacet
  facet normal -0.707106702161 -0.707106860212 -0
    outer loop
       vertex -1.20000004768 0.10000000149 1.5
       vertex -1.20000004768 0.10000000149 -1.5
       vertex -1.10000002384 0 -1.5
    endloop
  endfacet
  facet normal -0.707106702161 -0.707106860212 0
    outer loop
       vertex -1.20000004768 0.10000000149 1.5
       vertex -1.10000002384 0 -1.5
       vertex -1.10000002384 0 1.5
    endloop
  endfacet
  facet normal -0.894427370928 -0.447213235644 -0
    outer loop
       vertex -1.29999995232 0.300000011921 1.5
       vertex -1.29999995232 0.300000011921 -1.5
       vertex -1.20000004768 0.10000000149 -1.5
    endloop
  endfacet
  facet normal -0.894427370928 -0.447213235644 0
    outer loop
       vertex -1.29999995232 0.300000011921 1.5
       vertex -1.20000004768 0.10000000149 -1.5
       vertex -1.20000004768 0.10000000149 1.5
    endloop
  endfacet
  facet normal -0.894427350936 0.447213275628 0
    outer loop
       vertex -1.20000004768 0.5 1.5
       vertex -1.20000004768 0.5 -1.5
       vertex -1.29999995232 0.300000011921 -1.5
    endloop
  endfacet
  facet normal -0.894427350936 0.447213275628 0
    outer loop
       vertex -1.20000004768 0.5 1.5
       vertex -1.29999995232 0.300000011921 -1.5
       vertex -1.29999995232 0.300000011921 1.5
    endloop
  endfacet
  facet normal -0.894427350936 -0.447213275628 -0
    outer loop
       vertex -1.29999995232 0.699999988079 1.5
       vertex -1.29999995232 0.699999988079 -1.5
       vertex -1.20000004768 0.5 -1.5
    endloop
  endfacet
  facet normal -0.894427350936 -0.447213275628 0
    outer loop
       vertex -1.29999995232 0.699999988079 1.5
       vertex -1.20000004768 0.5 -1.5
       vertex -1.20000004768 0.5 1.5
    endloop
  endfacet
  facet normal -1 0 -0
    outer loop
       vertex -1.29999995232 0.800000011921 1.5
       vertex -1.29999995232 0.800000011921 -1.5
       vertex -1.29999995232 0.699999988079 -1.5
    endloop
  endfacet
  facet normal -1 -0 0
    outer loop
       vertex -1.29999995232 0.800000011921 1.5
       vertex -1.29999995232 0.699999988079 -1.5
       vertex -1.29999995232 0.699999988079 1.5
    endloop
  endfacet
  facet normal 0.447213808748 0.894427084376 0
    outer loop
       vertex -1.10000002384 0.699999988079 1.5
       vertex -1.10000002384 0.699999988079 -1.5
       vertex -1.29999995232 0.800000011921 -1.5
    endloop
  endfacet
  facet normal 0.447213808748 0.894427084376 0
    outer loop
       vertex -1.10000002384 0.699999988079 1.5
       vertex -1.29999995232 0.800000011921 -1.5
       vertex -1.29999995232 0.800000011921 1.5
    endloop
  endfacet
  facet normal -0.4472135955 0.894427191 0
    outer loop
       vertex -0.899999976158 0.800000011921 1.5
       vertex -0.899999976158 0.800000011921 -1.5
       vertex -1.10000002384 0.699999988079 -1.5
    endloop
  endfacet
  facet normal -0.4472135955 0.894427191 0
    outer loop
       vertex -0.899999976158 0.800000011921 1.5
       vertex -1.10000002384 0.699999988079 -1.5
       vertex -1.10000002384 0.699999988079 1.5
    endloop
  endfacet
  facet normal -0.707106781187 0.707106781187 0
    outer loop
       vertex -0.800000011921 0.899999976158 1.5
       vertex -0.800000011921 0.899999976158 -1.5
       vertex -0.899999976158 0.800000011921 -1.5
    endloop
  endfacet
  facet normal -0.707106781187 0.707106781187 0
    outer loop
       vertex -0.800000011921 0.899999976158 1.5
       vertex -0.899999976158 0.800000011921 -1.5
       vertex -0.899999976158 0.800000011921 1.5
    endloop
  endfacet
  facet normal -0.894427244312 0.447213488876 0
    outer loop
       vertex 0.40000000596 -0.899999976158 1.5
       vertex 0.300000011921 -1.10000002384 -1.5
       vertex 0.300000011921 -1.10000002384 1.5
    endloop
  endfacet
  facet normal -0.316227744812 -0.948683305119 -0
    outer loop
       vertex -0.20000000298 -0.699999988079 1.5
       vertex -0.20000000298 -0.699999988079 -1.5
       vertex 0.40000000596 -0.899999976158 -1.5
    endloop
  endfacet
  facet normal -0.316227744812 -0.948683305119 0
    outer loop
       vertex -0.20000000298 -0.699999988079 1.5
       vertex 0.40000000596 -0.899999976158 -1.5
       vertex 0.40000000596 -0.899999976158 1.5
    endloop
  endfacet
  facet normal 0.707106754845 -0.707106807528 0
    outer loop
       vertex -0.40000000596 -0.899999976158 1.5
       vertex -0.40000000596 -0.899999976158 -1.5
       vertex -0.20000000298 -0.699999988079 -1.5
    endloop
  endfacet
  facet normal 0.707106754845 -0.707106807528 0
    outer loop
       vertex -0.40000000596 -0.899999976158 1.5
       vertex -0.20000000298 -0.699999988079 -1.5
       vertex -0.20000000298 -0.699999988079 1.5
    endloop
  endfacet
  facet normal -0.196116078939 -0.980580686931 -0
    outer loop
       vertex -0.899999976158 -0.800000011921 1.5
       vertex -0.899999976158 -0.800000011921 -1.5
       vertex -0.40000000596 -0.899999976158 -1.5
    endloop
  endfacet
  facet normal -0.196116078939 -0.980580686931 0
    outer loop
       vertex -0.899999976158 -0.800000011921 1.5
       vertex -0.40000000596 -0.899999976158 -1.5
       vertex -0.40000000596 -0.899999976158 1.5
    endloop
  endfacet
  facet normal -0.316227766017 -0.948683298051 -0
    outer loop
       vertex -1.20000004768 -0.699999988079 1.5
       vertex -1.20000004768 -0.699999988079 -1.5
       vertex -0.899999976158 -0.800000011921 -1.5
    endloop
  endfacet
  facet normal -0.316227766017 -0.948683298051 0
    outer loop
       vertex -1.20000004768 -0.699999988079 1.5
       vertex -0.899999976158 -0.800000011921 -1.5
       vertex -0.899999976158 -0.800000011921 1.5
    endloop
  endfacet
  facet normal -0.948683382869 -0.31622751156 -0
    outer loop
       vertex -1.29999995232 -0.40000000596 1.5
       vertex -1.29999995232 -0.40000000596 -1.5
       vertex -1.20000004768 -0.699999988079 -1.5
    endloop
  endfacet
  facet normal -0.948683382869 -0.31622751156 0
    outer loop
       vertex -1.29999995232 -0.40000000596 1.5
       vertex -1.20000004768 -0.699999988079 -1.5
       vertex -1.20000004768 -0.699999988079 1.5
    endloop
  endfacet
  facet normal -0.707106912895 0.707106649478 0
    outer loop
       vertex -1.10000002384 -0.20000000298 1.5
       vertex -1.10000002384 -0.20000000298 -1.5
       vertex -1.29999995232 -0.40000000596 -1.5
    endloop
  endfacet
  facet normal -0.707106912895 0.707106649478 0
    outer loop
       vertex -1.10000002384 -0.20000000298 1.5
       vertex -1.29999995232 -0.40000000596 -1.5
       vertex -1.29999995232 -0.40000000596 1.5
    endloop
  endfacet
  facet normal -0.447213515532 0.894427230984 0
    outer loop
       vertex -0.899999976158 -0.10000000149 1.5
       vertex -0.899999976158 -0.10000000149 -1.5
       vertex -1.10000002384 -0.20000000298 -1.5
    endloop
  endfacet
  facet normal -0.447213515532 0.894427230984 0
    outer loop
       vertex -0.899999976158 -0.10000000149 1.5
       vertex -1.10000002384 -0.20000000298 -1.5
       vertex -1.10000002384 -0.20000000298 1.5
    endloop
  endfacet
  facet normal -1 0 -0
    outer loop
       vertex -0.899999976158 0.20000000298 1.5
       vertex -0.899999976158 0.20000000298 -1.5
       vertex -0.899999976158 -0.10000000149 -1.5
    endloop
  endfacet
  facet normal -1 -0 0
    outer loop
       vertex -0.899999976158 0.20000000298 1.5
       vertex -0.899999976158 -0.10000000149 -1.5
       vertex -0.899999976158 -0.10000000149 1.5
    endloop
  endfacet
  facet normal 0.707106702161 -0.707106860212 0
    outer loop
       vertex -1.10000002384 0 1.5
       vertex -1.10000002384 0 -1.5
       vertex -0.899999976158 0.20000000298 -1.5
    endloop
  endfacet
  facet normal 0.707106702161 -0.707106860212 0
    outer loop
       vertex -1.10000002384 0 1.5
       vertex -0.899999976158 0.20000000298 -1.5
       vertex -0.899999976158 0.20000000298 1.5
    endloop
  endfacet
endsolid jagged
