solid ascii
 facet normal -1 0 0
  outer loop
   vertex -0.5 0.475528 -0.154509
   vertex -0.5 0.456773 -0.203368
   vertex -0.5 0.489074 -0.103956
  endloop
 endfacet
 facet normal -1 0 0
  outer loop
   vertex -0.5 0.489074 -0.103956
   vertex -0.5 0.456773 -0.203368
   vertex -0.5 0.497261 -0.0522642
  endloop
 endfacet
 facet normal -1 0 0
  outer loop
   vertex -0.5 0.497261 -0.0522642
   vertex -0.5 0.456773 -0.203368
   vertex -0.5 0.5 0
  endloop
 endfacet
 facet normal -1 0 0
  outer loop
   vertex -0.5 0.5 0
   vertex -0.5 0.456773 -0.203368
   vertex -0.5 0.497261 0.0522642
  endloop
 endfacet
 facet normal -1 0 0
  outer loop
   vertex -0.5 0.497261 0.0522642
   vertex -0.5 0.456773 -0.203368
   vertex -0.5 0.489074 0.103956
  endloop
 endfacet
 facet normal -1 0 0
  outer loop
   vertex -0.5 0.489074 0.103956
   vertex -0.5 0.456773 -0.203368
   vertex -0.5 0.475528 0.154509
  endloop
 endfacet
 facet normal -1 0 0
  outer loop
   vertex -0.5 0.475528 0.154509
   vertex -0.5 0.456773 -0.203368
   vertex -0.5 0.456773 0.203368
  endloop
 endfacet
 facet normal -1 0 0
  outer loop
   vertex -0.5 0.456773 0.203368
   vertex -0.5 0.456773 -0.203368
   vertex -0.5 0.433013 0.25
  endloop
 endfacet
 facet normal -1 0 0
  outer loop
   vertex -0.5 0.456773 -0.203368
   vertex -0.5 0.433013 -0.25
   vertex -0.5 0.433013 0.25
  endloop
 endfacet
 facet normal -1 0 0
  outer loop
   vertex -0.5 0.433013 0.25
   vertex -0.5 0.433013 -0.25
   vertex -0.5 0.404509 0.293893
  endloop
 endfacet
 facet normal -1 0 0
  outer loop
   vertex -0.5 0.404509 0.293893
   vertex -0.5 0.433013 -0.25
   vertex -0.5 0.371572 0.334565
  endloop
 endfacet
 facet normal -1 0 0
  outer loop
   vertex -0.5 0.433013 -0.25
   vertex -0.5 0.404509 -0.293893
   vertex -0.5 0.371572 0.334565
  endloop
 endfacet
 facet normal -1 0 0
  outer loop
   vertex -0.5 0.404509 -0.293893
   vertex -0.5 0.371572 -0.334565
   vertex -0.5 0.371572 0.334565
  endloop
 endfacet
 facet normal -1 0 0
  outer loop
   vertex -0.5 0.371572 0.334565
   vertex -0.5 0.371572 -0.334565
   vertex -0.5 0.334565 0.371572
  endloop
 endfacet
 facet normal -1 0 0
  outer loop
   vertex -0.5 0.334565 0.371572
   vertex -0.5 0.371572 -0.334565
   vertex -0.5 0.293893 0.404509
  endloop
 endfacet
 facet normal -1 0 0
  outer loop
   vertex -0.5 0.293893 0.404509
   vertex -0.5 0.371572 -0.334565
   vertex -0.5 0.25 0.433013
  endloop
 endfacet
 facet normal -1 0 0
  outer loop
   vertex -0.5 0.25 0.433013
   vertex -0.5 0.371572 -0.334565
   vertex -0.5 0.203368 0.456773
  endloop
 endfacet
 facet normal -1 0 0
  outer loop
   vertex -0.5 0.203368 0.456773
   vertex -0.5 0.371572 -0.334565
   vertex -0.5 0.154509 0.475528
  endloop
 endfacet
 facet normal -1 0 0
  outer loop
   vertex -0.5 0.154509 0.475528
   vertex -0.5 0.371572 -0.334565
   vertex -0.5 0.103956 0.489074
  endloop
 endfacet
 facet normal -1 0 0
  outer loop
   vertex -0.5 0.103956 0.489074
   vertex -0.5 0.371572 -0.334565
   vertex -0.5 0.0522642 0.497261
  endloop
 endfacet
 facet normal -1 0 0
  outer loop
   vertex -0.5 0.0522642 0.497261
   vertex -0.5 0.371572 -0.334565
   vertex -0.5 -1.02552e-10 0.5
  endloop
 endfacet
 facet normal -1 0 0
  outer loop
   vertex -0.5 -1.02552e-10 0.5
   vertex -0.5 0.371572 -0.334565
   vertex -0.5 -0.0522642 0.497261
  endloop
 endfacet
 facet normal -1 0 0
  outer loop
   vertex -0.5 -0.0522642 0.497261
   vertex -0.5 0.371572 -0.334565
   vertex -0.5 -0.103956 0.489074
  endloop
 endfacet
 facet normal -1 0 0
  outer loop
   vertex -0.5 -0.103956 0.489074
   vertex -0.5 0.371572 -0.334565
   vertex -0.5 -0.154509 0.475528
  endloop
 endfacet
 facet normal -1 0 0
  outer loop
   vertex -0.5 -0.154509 0.475528
   vertex -0.5 0.371572 -0.334565
   vertex -0.5 -0.203368 0.456773
  endloop
 endfacet
 facet normal -1 0 0
  outer loop
   vertex -0.5 -0.203368 0.456773
   vertex -0.5 0.371572 -0.334565
   vertex -0.5 -0.25 0.433013
  endloop
 endfacet
 facet normal -1 0 0
  outer loop
   vertex -0.5 -0.25 0.433013
   vertex -0.5 0.371572 -0.334565
   vertex -0.5 -0.293893 0.404509
  endloop
 endfacet
 facet normal -1 0 0
  outer loop
   vertex -0.5 -0.293893 0.404509
   vertex -0.5 0.371572 -0.334565
   vertex -0.5 -0.334565 0.371572
  endloop
 endfacet
 facet normal -1 0 0
  outer loop
   vertex -0.5 -0.334565 0.371572
   vertex -0.5 0.371572 -0.334565
   vertex -0.5 -0.371572 0.334565
  endloop
 endfacet
 facet normal -1 0 0
  outer loop
   vertex -0.5 -0.371572 0.334565
   vertex -0.5 0.371572 -0.334565
   vertex -0.5 -0.404509 0.293893
  endloop
 endfacet
 facet normal -1 0 0
  outer loop
   vertex -0.5 -0.404509 0.293893
   vertex -0.5 0.371572 -0.334565
   vertex -0.5 -0.433013 0.25
  endloop
 endfacet
 facet normal -1 0 0
  outer loop
   vertex -0.5 -0.433013 0.25
   vertex -0.5 0.371572 -0.334565
   vertex -0.5 -0.456773 0.203368
  endloop
 endfacet
 facet normal -1 0 0
  outer loop
   vertex -0.5 -0.456773 0.203368
   vertex -0.5 0.371572 -0.334565
   vertex -0.5 -0.475528 0.154509
  endloop
 endfacet
 facet normal -1 0 0
  outer loop
   vertex -0.5 -0.475528 0.154509
   vertex -0.5 0.371572 -0.334565
   vertex -0.5 -0.489074 0.103956
  endloop
 endfacet
 facet normal -1 0 0
  outer loop
   vertex -0.5 -0.489074 0.103956
   vertex -0.5 0.371572 -0.334565
   vertex -0.5 -0.497261 0.0522642
  endloop
 endfacet
 facet normal -1 0 0
  outer loop
   vertex -0.5 -0.497261 0.0522642
   vertex -0.5 0.371572 -0.334565
   vertex -0.5 -0.5 -2.05103e-10
  endloop
 endfacet
 facet normal -1 0 0
  outer loop
   vertex -0.5 -0.5 -2.05103e-10
   vertex -0.5 0.371572 -0.334565
   vertex -0.5 -0.497261 -0.0522642
  endloop
 endfacet
 facet normal -1 0 0
  outer loop
   vertex -0.5 -0.497261 -0.0522642
   vertex -0.5 0.371572 -0.334565
   vertex -0.5 -0.489074 -0.103956
  endloop
 endfacet
 facet normal -1 0 0
  outer loop
   vertex -0.5 -0.489074 -0.103956
   vertex -0.5 0.371572 -0.334565
   vertex -0.5 -0.475528 -0.154509
  endloop
 endfacet
 facet normal -1 0 0
  outer loop
   vertex -0.5 -0.475528 -0.154509
   vertex -0.5 0.371572 -0.334565
   vertex -0.5 -0.456773 -0.203368
  endloop
 endfacet
 facet normal -1 0 0
  outer loop
   vertex -0.5 -0.456773 -0.203368
   vertex -0.5 0.371572 -0.334565
   vertex -0.5 -0.433013 -0.25
  endloop
 endfacet
 facet normal -1 0 0
  outer loop
   vertex -0.5 -0.433013 -0.25
   vertex -0.5 0.371572 -0.334565
   vertex -0.5 -0.404509 -0.293893
  endloop
 endfacet
 facet normal -1 0 0
  outer loop
   vertex -0.5 -0.404509 -0.293893
   vertex -0.5 0.371572 -0.334565
   vertex -0.5 -0.371572 -0.334565
  endloop
 endfacet
 facet normal -1 -0 0
  outer loop
   vertex -0.5 -0.371572 -0.334565
   vertex -0.5 0.371572 -0.334565
   vertex -0.5 -0.334565 -0.371572
  endloop
 endfacet
 facet normal -1 0 0
  outer loop
   vertex -0.5 -0.334565 -0.371572
   vertex -0.5 0.371572 -0.334565
   vertex -0.5 -0.293893 -0.404509
  endloop
 endfacet
 facet normal -1 0 0
  outer loop
   vertex -0.5 -0.293893 -0.404509
   vertex -0.5 0.371572 -0.334565
   vertex -0.5 -0.25 -0.433013
  endloop
 endfacet
 facet normal -1 0 0
  outer loop
   vertex -0.5 -0.25 -0.433013
   vertex -0.5 0.371572 -0.334565
   vertex -0.5 -0.203368 -0.456773
  endloop
 endfacet
 facet normal -1 0 0
  outer loop
   vertex -0.5 -0.203368 -0.456773
   vertex -0.5 0.371572 -0.334565
   vertex -0.5 -0.154509 -0.475528
  endloop
 endfacet
 facet normal -1 0 0
  outer loop
   vertex -0.5 -0.154509 -0.475528
   vertex -0.5 0.371572 -0.334565
   vertex -0.5 -0.103956 -0.489074
  endloop
 endfacet
 facet normal -1 0 0
  outer loop
   vertex -0.5 -0.103956 -0.489074
   vertex -0.5 0.371572 -0.334565
   vertex -0.5 -0.0522642 -0.497261
  endloop
 endfacet
 facet normal -1 0 0
  outer loop
   vertex -0.5 -0.0522642 -0.497261
   vertex -0.5 0.371572 -0.334565
   vertex -0.5 3.07655e-10 -0.5
  endloop
 endfacet
 facet normal -1 0 0
  outer loop
   vertex -0.5 3.07655e-10 -0.5
   vertex -0.5 0.371572 -0.334565
   vertex -0.5 0.0522642 -0.497261
  endloop
 endfacet
 facet normal -1 0 0
  outer loop
   vertex -0.5 0.0522642 -0.497261
   vertex -0.5 0.371572 -0.334565
   vertex -0.5 0.103956 -0.489074
  endloop
 endfacet
 facet normal -1 0 0
  outer loop
   vertex -0.5 0.103956 -0.489074
   vertex -0.5 0.371572 -0.334565
   vertex -0.5 0.154509 -0.475528
  endloop
 endfacet
 facet normal -1 -0 0
  outer loop
   vertex -0.5 0.371572 -0.334565
   vertex -0.5 0.334565 -0.371572
   vertex -0.5 0.154509 -0.475528
  endloop
 endfacet
 facet normal -1 -0 0
  outer loop
   vertex -0.5 0.334565 -0.371572
   vertex -0.5 0.293893 -0.404509
   vertex -0.5 0.154509 -0.475528
  endloop
 endfacet
 facet normal -1 -0 0
  outer loop
   vertex -0.5 0.293893 -0.404509
   vertex -0.5 0.25 -0.433013
   vertex -0.5 0.154509 -0.475528
  endloop
 endfacet
 facet normal -1 0 0
  outer loop
   vertex -0.5 0.203368 -0.456773
   vertex -0.5 0.154509 -0.475528
   vertex -0.5 0.25 -0.433013
  endloop
 endfacet
 facet normal 0.446723 0.893446 0.0468234
  outer loop
   vertex 0.5 0 0
   vertex -0.5 0.5 0
   vertex -0.5 0.497261 0.0522642
  endloop
 endfacet
 facet normal 0.446723 0.883657 0.139958
  outer loop
   vertex 0.5 0 0
   vertex -0.5 0.497261 0.0522642
   vertex -0.5 0.489074 0.103956
  endloop
 endfacet
 facet normal 0.446723 0.864187 0.231558
  outer loop
   vertex 0.5 0 0
   vertex -0.5 0.489074 0.103956
   vertex -0.5 0.475528 0.154509
  endloop
 endfacet
 facet normal 0.446723 0.835248 0.320622
  outer loop
   vertex 0.5 0 0
   vertex -0.5 0.475528 0.154509
   vertex -0.5 0.456773 0.203368
  endloop
 endfacet
 facet normal 0.446723 0.797159 0.406173
  outer loop
   vertex 0.5 0 0
   vertex -0.5 0.456773 0.203368
   vertex -0.5 0.433013 0.25
  endloop
 endfacet
 facet normal 0.446723 0.750335 0.487273
  outer loop
   vertex 0.5 0 0
   vertex -0.5 0.433013 0.25
   vertex -0.5 0.404509 0.293893
  endloop
 endfacet
 facet normal 0.446723 0.695291 0.563036
  outer loop
   vertex 0.5 0 0
   vertex -0.5 0.404509 0.293893
   vertex -0.5 0.371572 0.334565
  endloop
 endfacet
 facet normal 0.446723 0.632629 0.632629
  outer loop
   vertex 0.5 0 0
   vertex -0.5 0.371572 0.334565
   vertex -0.5 0.334565 0.371572
  endloop
 endfacet
 facet normal 0.446723 0.563036 0.695291
  outer loop
   vertex 0.5 0 0
   vertex -0.5 0.334565 0.371572
   vertex -0.5 0.293893 0.404509
  endloop
 endfacet
 facet normal 0.446723 0.487273 0.750335
  outer loop
   vertex 0.5 0 0
   vertex -0.5 0.293893 0.404509
   vertex -0.5 0.25 0.433013
  endloop
 endfacet
 facet normal 0.446723 0.406173 0.797159
  outer loop
   vertex 0.5 0 0
   vertex -0.5 0.25 0.433013
   vertex -0.5 0.203368 0.456773
  endloop
 endfacet
 facet normal 0.446723 0.320622 0.835248
  outer loop
   vertex 0.5 0 0
   vertex -0.5 0.203368 0.456773
   vertex -0.5 0.154509 0.475528
  endloop
 endfacet
 facet normal 0.446723 0.231558 0.864187
  outer loop
   vertex 0.5 0 0
   vertex -0.5 0.154509 0.475528
   vertex -0.5 0.103956 0.489074
  endloop
 endfacet
 facet normal 0.446723 0.139958 0.883657
  outer loop
   vertex 0.5 0 0
   vertex -0.5 0.103956 0.489074
   vertex -0.5 0.0522642 0.497261
  endloop
 endfacet
 facet normal 0.446723 0.0468234 0.893446
  outer loop
   vertex 0.5 0 0
   vertex -0.5 0.0522642 0.497261
   vertex -0.5 -1.02552e-10 0.5
  endloop
 endfacet
 facet normal 0.446723 -0.0468234 0.893446
  outer loop
   vertex 0.5 0 0
   vertex -0.5 -1.02552e-10 0.5
   vertex -0.5 -0.0522642 0.497261
  endloop
 endfacet
 facet normal 0.446723 -0.139958 0.883657
  outer loop
   vertex 0.5 0 0
   vertex -0.5 -0.0522642 0.497261
   vertex -0.5 -0.103956 0.489074
  endloop
 endfacet
 facet normal 0.446723 -0.231558 0.864187
  outer loop
   vertex 0.5 0 0
   vertex -0.5 -0.103956 0.489074
   vertex -0.5 -0.154509 0.475528
  endloop
 endfacet
 facet normal 0.446723 -0.320622 0.835248
  outer loop
   vertex 0.5 0 0
   vertex -0.5 -0.154509 0.475528
   vertex -0.5 -0.203368 0.456773
  endloop
 endfacet
 facet normal 0.446723 -0.406173 0.797159
  outer loop
   vertex 0.5 0 0
   vertex -0.5 -0.203368 0.456773
   vertex -0.5 -0.25 0.433013
  endloop
 endfacet
 facet normal 0.446723 -0.487273 0.750335
  outer loop
   vertex 0.5 0 0
   vertex -0.5 -0.25 0.433013
   vertex -0.5 -0.293893 0.404509
  endloop
 endfacet
 facet normal 0.446723 -0.563036 0.695291
  outer loop
   vertex 0.5 0 0
   vertex -0.5 -0.293893 0.404509
   vertex -0.5 -0.334565 0.371572
  endloop
 endfacet
 facet normal 0.446723 -0.632629 0.632629
  outer loop
   vertex 0.5 0 0
   vertex -0.5 -0.334565 0.371572
   vertex -0.5 -0.371572 0.334565
  endloop
 endfacet
 facet normal 0.446723 -0.695291 0.563036
  outer loop
   vertex 0.5 0 0
   vertex -0.5 -0.371572 0.334565
   vertex -0.5 -0.404509 0.293893
  endloop
 endfacet
 facet normal 0.446723 -0.750335 0.487273
  outer loop
   vertex 0.5 0 0
   vertex -0.5 -0.404509 0.293893
   vertex -0.5 -0.433013 0.25
  endloop
 endfacet
 facet normal 0.446723 -0.797159 0.406173
  outer loop
   vertex 0.5 0 0
   vertex -0.5 -0.433013 0.25
   vertex -0.5 -0.456773 0.203368
  endloop
 endfacet
 facet normal 0.446723 -0.835248 0.320622
  outer loop
   vertex 0.5 0 0
   vertex -0.5 -0.456773 0.203368
   vertex -0.5 -0.475528 0.154509
  endloop
 endfacet
 facet normal 0.446723 -0.864187 0.231558
  outer loop
   vertex 0.5 0 0
   vertex -0.5 -0.475528 0.154509
   vertex -0.5 -0.489074 0.103956
  endloop
 endfacet
 facet normal 0.446723 -0.883657 0.139958
  outer loop
   vertex 0.5 0 0
   vertex -0.5 -0.489074 0.103956
   vertex -0.5 -0.497261 0.0522642
  endloop
 endfacet
 facet normal 0.446723 -0.893446 0.0468234
  outer loop
   vertex 0.5 0 0
   vertex -0.5 -0.497261 0.0522642
   vertex -0.5 -0.5 -2.05103e-10
  endloop
 endfacet
 facet normal 0.446723 -0.893446 -0.0468234
  outer loop
   vertex 0.5 0 0
   vertex -0.5 -0.5 -2.05103e-10
   vertex -0.5 -0.497261 -0.0522642
  endloop
 endfacet
 facet normal 0.446723 -0.883657 -0.139958
  outer loop
   vertex 0.5 0 0
   vertex -0.5 -0.497261 -0.0522642
   vertex -0.5 -0.489074 -0.103956
  endloop
 endfacet
 facet normal 0.446723 -0.864187 -0.231558
  outer loop
   vertex 0.5 0 0
   vertex -0.5 -0.489074 -0.103956
   vertex -0.5 -0.475528 -0.154509
  endloop
 endfacet
 facet normal 0.446723 -0.835248 -0.320622
  outer loop
   vertex 0.5 0 0
   vertex -0.5 -0.475528 -0.154509
   vertex -0.5 -0.456773 -0.203368
  endloop
 endfacet
 facet normal 0.446723 -0.797159 -0.406173
  outer loop
   vertex 0.5 0 0
   vertex -0.5 -0.456773 -0.203368
   vertex -0.5 -0.433013 -0.25
  endloop
 endfacet
 facet normal 0.446723 -0.750335 -0.487273
  outer loop
   vertex 0.5 0 0
   vertex -0.5 -0.433013 -0.25
   vertex -0.5 -0.404509 -0.293893
  endloop
 endfacet
 facet normal 0.446723 -0.695291 -0.563036
  outer loop
   vertex 0.5 0 0
   vertex -0.5 -0.404509 -0.293893
   vertex -0.5 -0.371572 -0.334565
  endloop
 endfacet
 facet normal 0.446723 -0.632629 -0.632629
  outer loop
   vertex 0.5 0 0
   vertex -0.5 -0.371572 -0.334565
   vertex -0.5 -0.334565 -0.371572
  endloop
 endfacet
 facet normal 0.446723 -0.563036 -0.695291
  outer loop
   vertex 0.5 0 0
   vertex -0.5 -0.334565 -0.371572
   vertex -0.5 -0.293893 -0.404509
  endloop
 endfacet
 facet normal 0.446723 -0.487273 -0.750335
  outer loop
   vertex 0.5 0 0
   vertex -0.5 -0.293893 -0.404509
   vertex -0.5 -0.25 -0.433013
  endloop
 endfacet
 facet normal 0.446723 -0.406173 -0.797159
  outer loop
   vertex 0.5 0 0
   vertex -0.5 -0.25 -0.433013
   vertex -0.5 -0.203368 -0.456773
  endloop
 endfacet
 facet normal 0.446723 -0.320622 -0.835248
  outer loop
   vertex 0.5 0 0
   vertex -0.5 -0.203368 -0.456773
   vertex -0.5 -0.154509 -0.475528
  endloop
 endfacet
 facet normal 0.446723 -0.231558 -0.864187
  outer loop
   vertex 0.5 0 0
   vertex -0.5 -0.154509 -0.475528
   vertex -0.5 -0.103956 -0.489074
  endloop
 endfacet
 facet normal 0.446723 -0.139958 -0.883657
  outer loop
   vertex 0.5 0 0
   vertex -0.5 -0.103956 -0.489074
   vertex -0.5 -0.0522642 -0.497261
  endloop
 endfacet
 facet normal 0.446723 -0.0468234 -0.893446
  outer loop
   vertex 0.5 0 0
   vertex -0.5 -0.0522642 -0.497261
   vertex -0.5 3.07655e-10 -0.5
  endloop
 endfacet
 facet normal 0.446723 0.0468234 -0.893446
  outer loop
   vertex 0.5 0 0
   vertex -0.5 3.07655e-10 -0.5
   vertex -0.5 0.0522642 -0.497261
  endloop
 endfacet
 facet normal 0.446723 0.139958 -0.883657
  outer loop
   vertex 0.5 0 0
   vertex -0.5 0.0522642 -0.497261
   vertex -0.5 0.103956 -0.489074
  endloop
 endfacet
 facet normal 0.446723 0.231558 -0.864187
  outer loop
   vertex 0.5 0 0
   vertex -0.5 0.103956 -0.489074
   vertex -0.5 0.154509 -0.475528
  endloop
 endfacet
 facet normal 0.446723 0.320622 -0.835248
  outer loop
   vertex 0.5 0 0
   vertex -0.5 0.154509 -0.475528
   vertex -0.5 0.203368 -0.456773
  endloop
 endfacet
 facet normal 0.446723 0.406173 -0.797159
  outer loop
   vertex 0.5 0 0
   vertex -0.5 0.203368 -0.456773
   vertex -0.5 0.25 -0.433013
  endloop
 endfacet
 facet normal 0.446723 0.487273 -0.750335
  outer loop
   vertex 0.5 0 0
   vertex -0.5 0.25 -0.433013
   vertex -0.5 0.293893 -0.404509
  endloop
 endfacet
 facet normal 0.446723 0.563036 -0.695291
  outer loop
   vertex 0.5 0 0
   vertex -0.5 0.293893 -0.404509
   vertex -0.5 0.334565 -0.371572
  endloop
 endfacet
 facet normal 0.446723 0.632629 -0.632629
  outer loop
   vertex 0.5 0 0
   vertex -0.5 0.334565 -0.371572
   vertex -0.5 0.371572 -0.334565
  endloop
 endfacet
 facet normal 0.446723 0.695291 -0.563036
  outer loop
   vertex 0.5 0 0
   vertex -0.5 0.371572 -0.334565
   vertex -0.5 0.404509 -0.293893
  endloop
 endfacet
 facet normal 0.446723 0.750335 -0.487273
  outer loop
   vertex 0.5 0 0
   vertex -0.5 0.404509 -0.293893
   vertex -0.5 0.433013 -0.25
  endloop
 endfacet
 facet normal 0.446723 0.797159 -0.406173
  outer loop
   vertex 0.5 0 0
   vertex -0.5 0.433013 -0.25
   vertex -0.5 0.456773 -0.203368
  endloop
 endfacet
 facet normal 0.446723 0.835248 -0.320622
  outer loop
   vertex 0.5 0 0
   vertex -0.5 0.456773 -0.203368
   vertex -0.5 0.475528 -0.154509
  endloop
 endfacet
 facet normal 0.446723 0.864187 -0.231558
  outer loop
   vertex 0.5 0 0
   vertex -0.5 0.475528 -0.154509
   vertex -0.5 0.489074 -0.103956
  endloop
 endfacet
 facet normal 0.446723 0.883657 -0.139958
  outer loop
   vertex 0.5 0 0
   vertex -0.5 0.489074 -0.103956
   vertex -0.5 0.497261 -0.0522642
  endloop
 endfacet
 facet normal 0.446723 0.893446 -0.0468234
  outer loop
   vertex 0.5 0 0
   vertex -0.5 0.497261 -0.0522642
   vertex -0.5 0.5 0
  endloop
 endfacet
endsolid
